<svg width="20" height="21" viewBox="0 0 20 21" fill="none" xmlns="http://www.w3.org/2000/svg">
<path d="M1.82023 18.5006L0 0.5H20L18.1782 18.4976L9.98775 20.5L1.82023 18.5006Z" fill="#1572B6"/>
<path d="M10.0003 18.9695L16.6183 17.3517L18.1753 1.97192H10.0003V18.9695Z" fill="#33A9DC"/>
<path d="M10.0001 8.49341H13.3133L13.5423 6.23275H10.0001V4.02502H16.2786L16.2186 4.61729L15.6033 10.7009H10.0001V8.49341Z" fill="white"/>
<path d="M10.0152 14.2271L10.0041 14.2298L7.2157 13.5658L7.03721 11.8051H4.52414L4.87506 15.2715L10.0037 16.5268L10.0154 16.5238V14.2271H10.0152Z" fill="#EBEBEB"/>
<path d="M13.1006 10.6077L12.7989 13.5643L10.0064 14.2289V16.5258L15.1393 15.2715L15.1771 14.8984L15.6128 10.6077H13.1006Z" fill="white"/>
<path d="M10.0089 4.02502V6.23256H3.96102L3.91066 5.73642L3.79669 4.61729L3.73666 4.02502H10.0089ZM10.0001 8.49361V10.7013H7.24695L7.19682 10.2052L7.08262 9.08588L7.0226 8.49361H10.0001Z" fill="#EBEBEB"/>
</svg>
