<svg width="20" height="20" viewBox="0 0 20 20" fill="none" xmlns="http://www.w3.org/2000/svg">
<path d="M6.66665 20C8.50665 20 9.99998 18.5066 9.99998 16.6666V13.3333H6.66665C4.82665 13.3333 3.33331 14.8266 3.33331 16.6666C3.33331 18.5066 4.82665 20 6.66665 20Z" fill="#0ACF83"/>
<path d="M3.33331 10C3.33331 8.16002 4.82665 6.66669 6.66665 6.66669H9.99998V13.3334H6.66665C4.82665 13.3334 3.33331 11.84 3.33331 10Z" fill="#A259FF"/>
<path d="M3.33331 3.33333C3.33331 1.49333 4.82665 0 6.66665 0H9.99998V6.66667H6.66665C4.82665 6.66667 3.33331 5.17333 3.33331 3.33333Z" fill="#F24E1E"/>
<path d="M10 0H13.3333C15.1733 0 16.6667 1.49333 16.6667 3.33333C16.6667 5.17333 15.1733 6.66667 13.3333 6.66667H10V0Z" fill="#FF7262"/>
<path d="M16.6667 10C16.6667 11.84 15.1733 13.3334 13.3333 13.3334C11.4933 13.3334 10 11.84 10 10C10 8.16002 11.4933 6.66669 13.3333 6.66669C15.1733 6.66669 16.6667 8.16002 16.6667 10Z" fill="#1ABCFE"/>
</svg>
