<svg width="20" height="20" viewBox="0 0 20 20" fill="none" xmlns="http://www.w3.org/2000/svg">
<path d="M1.81818 17.9688L0 0H20L18.1818 17.9688L9.97783 20" fill="#E34F26"/>
<path d="M10.0222 18.4375L16.6297 16.8359L18.1818 1.44531H10.0222" fill="#EF652A"/>
<path d="M10.0222 8.125H6.69624L6.47451 5.85938H10.0222V3.67188H3.72507L4.39026 10.3516H10.0222V8.125ZM9.97784 13.8672L7.18405 13.2031L7.00666 11.4453H4.52329L4.83371 14.9219L9.97784 16.1719V13.8672Z" fill="#EBEBEB"/>
<path d="M9.97781 8.125V10.3516H13.082L12.7716 13.2031L9.97781 13.8672V16.1719L15.1219 14.9219L15.8315 8.125H9.97781ZM9.97781 3.67188V5.85938H16.0532L16.2749 3.67188H9.97781Z" fill="white"/>
</svg>
