<svg width="35" height="35" viewBox="0 0 35 35" fill="none" xmlns="http://www.w3.org/2000/svg">
<path d="M9.52581 28.5162C9.31289 28.5162 9.12331 28.5031 8.96289 28.4783V29.1856C9.29247 29.3169 9.56518 29.3825 9.78831 29.3825C10.6239 29.3825 11.3939 28.8721 12.0968 27.8469C12.9952 26.5198 13.7214 24.3891 14.2727 21.4608H12.9893C12.7604 23.2589 12.355 24.9244 11.7716 26.4469C11.8125 26.1421 11.7118 25.6069 11.4727 24.8398L10.4125 21.4608H9.08539L10.5641 25.9802C10.7873 26.6583 10.8996 27.1104 10.8996 27.3321C10.8996 27.6514 10.7566 27.9402 10.4693 28.1983C10.2302 28.4083 9.91664 28.5162 9.52581 28.5162Z" fill="#105E86"/>
<path d="M28.4113 19.3856V27.3029H32.2467V26.3287H29.7019V19.3856H28.4113Z" fill="#DE8A03"/>
<path d="M1.51667 20.9883H1.53125L3.57292 27.3029H4.60104L6.65729 20.9883H6.66896C6.88333 22.9644 7.01896 25.0658 7.06271 27.3029H8.41458H8.41896C8.35479 24.9112 8.14771 22.2702 7.79479 19.3856H6.19792L4.23354 25.2044H4.22187L2.275 19.3856H0.597917C0.28 21.8473 0.0802083 24.4883 0 27.3029H1.23229C1.27167 24.9871 1.36646 22.8827 1.51667 20.9883Z" fill="#105E86"/>
<path d="M27.2402 23.1963C27.2402 20.5771 26.1931 19.2646 24.0975 19.2646C23.0708 19.2646 22.2688 19.5971 21.6913 20.2621C21.0642 20.9898 20.7492 22.0602 20.7492 23.4763C20.7492 24.8675 21.0263 25.8898 21.5863 26.5402C22.0967 27.1279 22.8652 27.421 23.8948 27.421C24.2798 27.421 24.6327 27.3744 24.9521 27.281L26.8844 28.3865L27.4094 27.4969H27.405L25.9233 26.7808C26.0546 26.6715 26.1815 26.5548 26.2952 26.4235C26.9267 25.6973 27.2402 24.621 27.2402 23.1963ZM24.0275 26.441C23.3785 26.441 22.9046 26.2019 22.6013 25.725L22.6042 25.7177C22.276 25.2029 22.1127 24.3717 22.1127 23.2327C22.1127 21.2377 22.731 20.2402 23.9648 20.2402C24.6108 20.2402 25.0877 20.4794 25.3896 20.9563C25.7163 21.474 25.8796 22.2965 25.8796 23.4238C25.8796 25.4333 25.2613 26.441 24.0275 26.441ZM19.25 23.4413C19.25 23.4413 18.0921 22.7894 17.519 22.4817C16.889 22.1375 16.5477 21.7335 16.5477 21.2654C16.5477 20.9592 16.6863 20.7098 16.9094 20.5144C17.131 20.316 17.4504 20.2198 17.8631 20.2198C18.3721 20.2198 18.8898 20.3306 19.4148 20.5494L19.7254 19.8683C19.1129 19.476 18.4304 19.2821 17.6838 19.2821C16.9546 19.2821 16.364 19.4775 15.9046 19.8756C15.4481 20.2694 15.2192 20.7842 15.2192 21.4288C15.2192 22.2031 15.5254 22.6742 16.1408 23.1146C16.1408 23.1146 17.271 23.7504 17.8369 24.0552C18.4465 24.3921 18.7819 24.7931 18.7819 25.2656C18.7819 25.639 18.6185 25.935 18.3444 26.1465C18.0673 26.3565 17.6867 26.4615 17.2025 26.4615C16.6819 26.4615 16.1058 26.3069 15.4671 25.9919L15.1215 26.6729C15.8638 27.1644 16.6235 27.4108 17.4154 27.4108C18.2627 27.4108 18.9321 27.1965 19.4338 26.7663C19.9354 26.3375 20.1863 25.7848 20.1863 25.111L20.195 25.1154C20.195 24.344 19.8815 23.8788 19.25 23.4413Z" fill="#DE8A03"/>
<path d="M23.9239 8.41167C23.7562 8.41167 23.6425 8.43209 23.5244 8.45834V8.47729H23.5448C23.6235 8.62604 23.7577 8.73542 23.8569 8.86813C23.9356 9.02125 24.0027 9.17438 24.0814 9.32604L24.1019 9.30417C24.2389 9.20938 24.306 9.05771 24.306 8.82729C24.2477 8.76021 24.2389 8.69313 24.1894 8.6275C24.131 8.53125 24.0056 8.48459 23.9269 8.40875L23.9239 8.41167Z" fill="#105E86"/>
<path d="M34.5552 19.25C34.2723 18.8781 33.9208 18.5529 33.5417 18.2831C33.2296 18.0746 32.5471 17.7814 32.4188 17.4314L32.3998 17.411C32.6127 17.3921 32.8665 17.3162 33.0706 17.2594C33.4017 17.1733 33.705 17.1923 34.0477 17.1077C34.2023 17.0698 34.3583 17.0217 34.5144 16.9735V16.8875C34.3394 16.7154 34.2081 16.4821 34.0273 16.3217C33.5315 15.8987 32.9817 15.4889 32.4173 15.1433C32.1111 14.9508 31.7231 14.8283 31.4008 14.665C31.2842 14.6081 31.0888 14.5789 31.0217 14.4827C30.8467 14.2742 30.7446 13.9956 30.6206 13.7462C30.3406 13.2198 30.0665 12.6364 29.8229 12.0808C29.6479 11.706 29.5415 11.3327 29.3271 10.9885C28.3208 9.36103 27.2315 8.37374 25.5558 7.40978C25.1956 7.20999 24.764 7.12395 24.3075 7.01749C24.064 7.00582 23.8204 6.98832 23.5783 6.97811C23.4179 6.91103 23.2633 6.72874 23.1263 6.64124C22.5721 6.29707 21.1371 5.55332 20.7288 6.5377C20.4663 7.15895 21.1181 7.77145 21.3442 8.08645C21.5119 8.3052 21.7233 8.55603 21.84 8.80249C21.9086 8.96874 21.9275 9.13936 21.9961 9.3129C22.1506 9.73436 22.2979 10.2025 22.5021 10.5977C22.6086 10.7975 22.7252 11.0089 22.8623 11.1883C22.9411 11.2933 23.0752 11.3414 23.1058 11.5135C22.9688 11.7089 22.96 11.9919 22.8813 12.2296C22.5313 13.3131 22.6683 14.6533 23.1642 15.451C23.3202 15.6887 23.6921 16.2152 24.1894 16.0139C24.6269 15.8419 24.5306 15.2979 24.6561 14.8181C24.6852 14.7029 24.6663 14.6271 24.7261 14.5498V14.5717C24.8631 14.8414 25.0002 15.0967 25.1256 15.3664C25.4261 15.836 25.9511 16.3231 26.39 16.6483C26.6233 16.8204 26.8086 17.1179 27.1002 17.2244V17.1952H27.0784C27.0156 17.1121 26.9325 17.0727 26.8538 17.0042C26.6788 16.8321 26.4819 16.6221 26.3433 16.431C25.935 15.8914 25.5748 15.2994 25.254 14.6869C25.0936 14.3864 24.9594 14.0627 24.8311 13.7667C24.7727 13.6529 24.7727 13.4808 24.675 13.4225C24.5292 13.631 24.3148 13.8133 24.2083 14.0714C24.0231 14.4842 24.0042 14.9902 23.9342 15.5181C23.8948 15.5283 23.9138 15.5181 23.8948 15.5385C23.5827 15.4642 23.4763 15.1462 23.3596 14.8794C23.0679 14.1998 23.0198 13.1075 23.2721 12.3229C23.3406 12.1231 23.6323 11.4902 23.5156 11.2977C23.4544 11.1154 23.2619 11.0119 23.1554 10.8646C23.0286 10.6867 22.8929 10.4562 22.8054 10.2535C22.5721 9.71832 22.4554 9.12478 22.2017 8.58957C22.085 8.34165 21.8808 8.08207 21.7146 7.85457C21.5294 7.59645 21.3252 7.41561 21.1779 7.10936C21.1298 7.00436 21.0613 6.83082 21.1386 6.71707C21.159 6.63978 21.1998 6.60915 21.2756 6.58874C21.404 6.4852 21.7642 6.62082 21.8911 6.6777C22.2513 6.82061 22.5546 6.95478 22.8565 7.15603C22.9936 7.25082 23.1408 7.43165 23.3158 7.47978H23.52C23.8321 7.54686 24.1836 7.5002 24.4752 7.58478C24.9929 7.74811 25.4596 7.98582 25.8781 8.24395C27.1556 9.0402 28.2056 10.1689 28.9188 11.5164C29.0354 11.7367 29.0865 11.9394 29.1929 12.1683C29.3971 12.6408 29.6494 13.1177 29.8565 13.5742C30.0606 14.0248 30.2575 14.4856 30.5506 14.8589C30.6965 15.0587 31.2827 15.1637 31.5452 15.2687C31.7392 15.3548 32.0411 15.4335 32.2161 15.5385C32.5515 15.7383 32.8781 15.9687 33.1931 16.1889C33.3536 16.2983 33.8392 16.5375 33.8684 16.73C33.0881 16.7096 32.4829 16.7869 31.9769 16.9998C31.8311 17.0567 31.5977 17.0567 31.5773 17.2389C31.6575 17.3148 31.6692 17.4387 31.7377 17.5452C31.8544 17.7362 32.0556 17.9929 32.2423 18.1285C32.4465 18.286 32.6506 18.4377 32.865 18.5719C33.2442 18.8008 33.6744 18.9364 34.0463 19.1669C34.2577 19.301 34.4736 19.4717 34.6879 19.6146C34.7944 19.686 34.8629 19.8158 35 19.861V19.8333C34.9329 19.7473 34.9125 19.6233 34.8469 19.5271C34.7492 19.4308 34.6515 19.3448 34.5552 19.25Z" fill="#105E86"/>
</svg>
