<svg width="20" height="20" viewBox="0 0 20 20" fill="none" xmlns="http://www.w3.org/2000/svg">
<path d="M10 19.8834C15.5228 19.8834 20 15.4323 20 9.94169C20 4.45105 15.5228 0 10 0C4.47715 0 0 4.45105 0 9.94169C0 15.4323 4.47715 19.8834 10 19.8834Z" fill="#8993BE"/>
<path fill-rule="evenodd" clip-rule="evenodd" d="M2.80823 15.8282L3.90417 5.23238H6.43831C7.53417 5.36324 8.08213 6.40963 8.08213 8.24115C8.08213 11.3806 6.78081 13.212 5.61635 13.0811H4.38362L4.10963 15.8282H2.80823ZM4.65752 11.1191L5.00002 7.19461H5.89042C6.36987 7.19461 6.71229 7.58702 6.71229 8.37186C6.64385 10.5958 6.09588 10.9882 5.47948 11.1191H4.6576H4.65752ZM7.82752 13.0811L8.92338 2.48547H10.2248L9.95081 5.23238H11.1836C12.2796 5.36324 12.6905 6.40963 12.5535 7.71788L12.0741 13.0811H10.7042L11.1837 8.24115C11.2521 7.58702 11.2521 7.19461 10.7728 7.19461H9.74534L9.12893 13.0811H7.82752ZM11.9864 15.8282L13.0822 5.23238H15.6164C16.7124 5.36324 17.2603 6.40963 17.2603 8.24115C17.2603 11.3806 15.9589 13.212 14.7946 13.0811H13.5617L13.2877 15.8282H11.9864ZM13.8356 11.1191L14.1781 7.19461H15.0685C15.548 7.19461 15.8904 7.58702 15.8904 8.37186C15.822 10.5958 15.274 10.9882 14.6576 11.1191H13.8356H13.8356Z" fill="#232531"/>
</svg>
