<svg width="20" height="20" viewBox="0 0 20 20" fill="none" xmlns="http://www.w3.org/2000/svg">
<path d="M10 19.9843C15.5228 19.9843 20 15.5251 20 10.0243C20 4.52357 15.5228 0.0643311 10 0.0643311C4.47715 0.0643311 0 4.52357 0 10.0243C0 15.5251 4.47715 19.9843 10 19.9843Z" fill="#1A171B"/>
<path d="M14.352 3.74466C13.3375 3.77991 12.452 4.33682 11.7929 5.10716C11.063 5.95181 10.5775 6.95365 10.2276 7.97626C9.60186 7.46542 9.11905 6.80409 8.11507 6.51572C7.33905 6.2938 6.52397 6.38546 5.77444 6.94167C5.41936 7.20584 5.17475 7.60517 5.05843 7.98054C4.75725 8.95608 5.37507 9.82423 5.65569 10.1359L6.26921 10.7908C6.39569 10.9192 6.7003 11.2542 6.55139 11.7345C6.39046 12.2566 5.75843 12.5947 5.11014 12.3955C4.82061 12.3075 4.40467 12.0927 4.4978 11.7902C4.53632 11.6664 4.62522 11.5738 4.67288 11.4669C4.71663 11.375 4.73749 11.306 4.75077 11.2656C4.86921 10.8804 4.70741 10.3793 4.29319 10.252C3.90678 10.1341 3.51139 10.2275 3.35811 10.7231C3.18428 11.2861 3.45475 12.3079 4.90366 12.7528C6.60124 13.2723 8.03725 12.3517 8.24093 11.1509C8.36921 10.3989 8.02827 9.84018 7.40366 9.12158L6.89475 8.56102C6.58647 8.25429 6.48061 7.73146 6.79968 7.32964C7.06889 6.99069 7.45233 6.84604 8.0803 7.01613C8.99694 7.26404 9.40553 7.89752 10.0873 8.40843C9.80585 9.3281 9.62186 10.2512 9.4553 11.079L9.35382 11.6961C8.86647 14.2422 8.49444 15.6402 7.52764 16.4429C7.33288 16.5808 7.05444 16.7874 6.63475 16.8018C6.41475 16.8085 6.34366 16.6578 6.34061 16.5921C6.33538 16.4383 6.46553 16.3678 6.55202 16.2985C6.68124 16.2284 6.87663 16.1119 6.86335 15.739C6.84928 15.2983 6.48272 14.9161 5.95288 14.9336C5.556 14.9471 4.95108 15.3191 4.97382 16.0001C4.99749 16.7034 5.65569 17.2305 6.64803 17.1971C7.1785 17.179 8.36303 16.9639 9.53046 15.5817C10.8892 13.9973 11.2692 12.1809 11.5551 10.8515L11.8741 9.09637C12.0514 9.11754 12.2409 9.13162 12.4471 9.13652C14.1394 9.17208 14.9858 8.29903 14.9984 7.664C15.0068 7.27968 14.7452 6.90152 14.3791 6.91008C14.1169 6.91747 13.7876 7.09122 13.7086 7.45227C13.6314 7.80648 14.2471 8.12613 13.7658 8.4366C13.424 8.65697 12.8111 8.81228 11.948 8.68607L12.1049 7.82212C12.4252 6.18377 12.8203 4.16851 14.319 4.11949C14.4283 4.11396 14.828 4.12439 14.8373 4.38763C14.84 4.47556 14.8181 4.49797 14.7148 4.69927C14.6095 4.85621 14.5698 4.98982 14.5748 5.14334C14.5892 5.56166 14.9086 5.83657 15.3705 5.82C15.9889 5.80008 16.1668 5.20038 16.1566 4.8924C16.1316 4.16874 15.3658 3.71159 14.3519 3.74466H14.352Z" fill="white"/>
</svg>
