<svg width="20" height="20" viewBox="0 0 20 20" fill="none" xmlns="http://www.w3.org/2000/svg">
<path d="M10.0002 4.05135e-10C8.02234 -1.7799e-05 6.0889 0.58647 4.44437 1.6853C2.79985 2.78413 1.5181 4.34594 0.76121 6.17323C0.00432318 8.00053 -0.193706 10.0112 0.192167 11.9511C0.578039 13.8909 1.53048 15.6728 2.92905 17.0713C4.32762 18.4698 6.10949 19.4222 8.04934 19.8081C9.98919 20.1939 11.9999 19.9958 13.8272 19.2389C15.6544 18.482 17.2162 17.2002 18.315 15.5556C19.4138 13.9111 20.0002 11.9776 20.0002 9.99976C19.9972 7.34854 18.9426 4.80678 17.0679 2.93211C15.1932 1.05744 12.6514 0.00295639 10.0002 4.05135e-10ZM1.00946 9.99976C1.00847 8.73889 1.27374 7.49203 1.7879 6.34076L6.07672 18.0913C4.55755 17.3544 3.27656 16.2047 2.3804 14.7737C1.48424 13.3427 1.00913 11.6882 1.00946 9.99976ZM10.0002 18.9912C9.14035 18.9912 8.28497 18.8679 7.46018 18.6249L10.1581 10.7862L12.9214 18.3575C12.9394 18.4006 12.9609 18.442 12.9858 18.4814C12.0267 18.8194 11.0171 18.9917 10.0002 18.9912ZM11.2392 5.78436C11.7804 5.75592 12.2682 5.69897 12.2682 5.69897C12.3654 5.68999 12.4552 5.64313 12.5181 5.56852C12.5811 5.4939 12.6121 5.39752 12.6046 5.3002C12.5971 5.20288 12.5515 5.11243 12.4779 5.04839C12.4042 4.98436 12.3083 4.95188 12.2109 4.95797C12.2109 4.95797 10.7546 5.07229 9.81438 5.07229C8.93108 5.07229 7.44658 4.95797 7.44658 4.95797C7.3493 4.95218 7.25363 4.98482 7.18019 5.04888C7.10675 5.11294 7.06141 5.20329 7.05393 5.30046C7.04646 5.39763 7.07745 5.49384 7.14023 5.56838C7.20301 5.64292 7.29256 5.68982 7.38958 5.69897C7.38958 5.69897 7.84808 5.75592 8.33258 5.78436L9.73333 9.62236L7.76533 15.5232L4.49151 5.78436C5.03318 5.75592 5.52044 5.699 5.52044 5.699C5.61757 5.68992 5.70723 5.64301 5.77008 5.5684C5.83293 5.49379 5.86392 5.39747 5.85638 5.30021C5.84883 5.20295 5.80335 5.11256 5.72975 5.04853C5.65614 4.98451 5.56032 4.952 5.46295 4.958C5.46295 4.958 4.00702 5.07232 3.06683 5.07232C2.89813 5.07232 2.69915 5.06817 2.48822 5.06139C3.20304 3.97352 4.14561 3.05389 5.25076 2.3661C6.35592 1.67831 7.59727 1.23877 8.88899 1.07789C10.1807 0.916999 11.492 1.0386 12.7321 1.43428C13.9722 1.82996 15.1115 2.49028 16.0714 3.36957C16.0327 3.36719 15.9948 3.36237 15.955 3.36237C15.5435 3.37463 15.1536 3.5494 14.8706 3.84844C14.5877 4.14748 14.4347 4.54644 14.4452 4.958C14.5394 5.7289 14.8451 6.45871 15.3284 7.0667C15.8009 7.80837 16.0575 8.66695 16.0696 9.54625C15.9762 10.5419 15.746 11.5199 15.3855 12.4528L14.4885 15.4491L11.2392 5.78436ZM14.5202 17.771L17.2663 9.8313C17.7021 8.81277 17.9344 7.71877 17.95 6.611C17.9506 6.30181 17.9304 5.99293 17.8896 5.68644C19.0132 7.74267 19.2897 10.1563 18.6604 12.4134C18.0311 14.6705 16.5456 16.5928 14.5202 17.771Z" fill="white"/>
</svg>
