<?xml version="1.0" standalone="no"?>
<!DOCTYPE svg PUBLIC "-//W3C//DTD SVG 20010904//EN"
 "http://www.w3.org/TR/2001/REC-SVG-20010904/DTD/svg10.dtd">
<svg version="1.0" xmlns="http://www.w3.org/2000/svg"
 width="612.000000pt" height="612.000000pt" viewBox="0 0 612.000000 612.000000"
 preserveAspectRatio="xMidYMid meet">
<metadata>
Created by potrace 1.14, written by Peter Selinger 2001-2017
</metadata>
<g transform="translate(0.000000,612.000000) scale(0.100000,-0.100000)"
fill="#000000" stroke="none">
<path d="M2955 6061 c-42 -11 -73 -28 -127 -74 l-47 -39 -93 6 c-51 4 -118 9
-148 12 -63 6 -169 -23 -205 -56 -11 -11 -36 -26 -55 -35 -19 -9 -54 -27 -78
-40 -26 -15 -79 -30 -135 -39 -108 -18 -206 -52 -268 -95 -24 -16 -86 -71
-137 -120 -51 -50 -98 -91 -106 -91 -7 0 -19 -6 -25 -13 -6 -8 -39 -22 -73
-31 -94 -27 -108 -34 -108 -55 0 -20 52 -65 94 -81 32 -12 34 -37 4 -49 -43
-17 -144 -140 -177 -216 -46 -103 -60 -171 -61 -282 0 -61 5 -124 10 -139 14
-35 1 -69 -52 -141 -102 -139 -149 -259 -155 -398 -7 -125 15 -227 87 -405 24
-60 38 -112 65 -238 18 -81 18 -82 -2 -105 -117 -130 -122 -406 -14 -677 21
-52 46 -122 56 -155 31 -108 84 -226 121 -271 34 -42 121 -106 169 -124 18 -7
25 -23 39 -92 36 -184 47 -226 76 -298 17 -41 43 -95 57 -119 28 -48 186 -211
267 -276 l50 -39 -38 -30 c-101 -82 -165 -150 -197 -209 -33 -61 -34 -63 -34
-192 l0 -130 -60 -20 c-33 -11 -73 -26 -90 -32 -87 -33 -203 -65 -258 -71
l-62 -7 116 -77 c796 -528 1770 -659 2667 -359 277 93 560 236 791 399 l64 45
-79 23 c-44 13 -128 40 -189 62 l-110 38 0 135 c0 126 -2 137 -27 189 -42 84
-141 176 -225 209 -38 15 -55 33 -45 46 4 6 45 42 92 82 47 39 108 97 135 128
53 60 115 160 115 186 0 9 7 31 17 49 16 34 45 156 67 285 9 52 17 72 31 80
145 75 213 159 260 320 24 79 62 190 74 212 13 25 56 149 71 203 7 25 15 96
17 158 6 148 -12 228 -67 298 -74 93 -73 91 -61 125 6 18 11 52 11 76 0 27 11
67 29 106 81 175 99 242 108 397 10 189 -40 404 -125 533 -26 38 -32 61 -58
212 -20 120 -75 223 -166 315 -38 38 -68 75 -68 84 0 17 -94 171 -130 212 -14
16 -53 51 -87 78 -35 27 -63 53 -63 58 0 5 25 32 54 59 60 55 72 78 57 108 -9
17 -24 20 -113 23 -110 4 -155 19 -283 97 -27 17 -57 34 -65 37 -8 4 -22 13
-30 20 -25 21 -206 111 -277 138 -84 31 -196 46 -285 39 -53 -4 -82 -1 -130
15 -68 22 -324 37 -383 23z m-184 -1262 c62 -84 134 -159 152 -159 6 0 17 -8
24 -18 25 -42 80 -56 213 -57 103 0 131 -3 153 -17 21 -15 49 -18 146 -18 69
0 122 4 126 10 8 13 62 13 67 0 7 -20 156 -33 244 -21 71 10 89 9 120 -4 20
-8 54 -15 75 -15 22 0 39 -4 39 -10 0 -6 31 -10 74 -10 41 0 87 -5 101 -10 43
-17 100 -83 112 -131 22 -89 69 -225 93 -267 14 -24 32 -57 42 -74 9 -16 23
-37 31 -46 27 -30 40 -143 44 -380 3 -180 1 -236 -9 -246 -15 -14 -188 -100
-192 -94 -1 1 -14 24 -29 49 -14 25 -38 54 -52 63 -17 11 -25 25 -25 45 0 33
-67 96 -112 106 -16 4 -28 10 -28 15 0 5 -15 14 -34 20 -19 6 -36 15 -38 21
-4 11 -101 39 -135 39 -13 0 -23 5 -23 11 0 13 -199 7 -420 -14 -91 -9 -168
-16 -172 -16 -5 -1 -8 -8 -8 -16 0 -8 -4 -15 -9 -15 -5 0 -12 -18 -16 -40 -10
-60 15 -96 74 -106 25 -4 38 -9 29 -11 -10 -3 -18 -8 -18 -13 0 -5 -17 -14
-37 -21 -21 -6 -55 -30 -76 -52 l-38 -40 -62 9 c-79 10 -166 11 -242 1 l-60
-8 -25 35 c-14 21 -40 40 -60 47 -19 6 -42 17 -50 24 -8 7 -22 15 -30 17 -8 3
6 9 32 13 44 7 48 10 63 50 16 40 16 44 -4 82 -11 24 -30 43 -43 47 -13 3 -83
9 -156 13 -73 3 -135 10 -138 15 -7 11 -281 10 -288 -1 -3 -5 -40 -16 -81 -26
-41 -9 -75 -20 -75 -24 0 -5 -13 -14 -30 -21 -16 -7 -30 -15 -30 -19 0 -4 -15
-12 -34 -19 -18 -7 -50 -27 -70 -44 -31 -27 -37 -37 -32 -60 4 -22 1 -30 -17
-39 -24 -13 -66 -58 -67 -74 0 -5 -7 -18 -15 -28 -13 -17 -16 -18 -42 -4 -15
9 -50 26 -78 39 -84 40 -95 54 -95 122 0 59 46 256 60 256 15 0 33 133 27 201
-6 69 0 82 23 54 16 -20 45 -19 65 2 14 14 17 31 13 93 -4 65 -9 83 -32 113
-39 51 -37 92 12 191 74 150 86 181 91 236 6 51 8 55 31 52 14 -1 40 -10 59
-18 40 -19 258 -31 311 -17 31 8 35 13 38 46 2 25 -1 37 -9 37 -14 0 -89 77
-89 91 0 22 60 -6 127 -59 23 -18 46 -32 52 -32 7 0 38 -18 71 -39 52 -35 69
-40 149 -49 49 -5 100 -8 113 -6 92 13 101 17 139 55 21 22 39 48 39 59 0 24
-26 50 -50 50 -10 0 -26 3 -35 6 -35 14 -63 144 -31 144 8 0 38 -32 67 -71z
m-486 -1359 c-3 -5 -17 -10 -30 -10 -13 0 -27 5 -30 10 -4 6 8 10 30 10 22 0
34 -4 30 -10z m1645 0 c-20 -13 -60 -13 -60 0 0 6 17 10 38 10 27 0 33 -3 22
-10z m-1275 -115 c103 -44 146 -70 172 -104 28 -35 28 -38 28 -171 -1 -104 -4
-142 -17 -165 -9 -16 -24 -56 -34 -87 -10 -32 -21 -58 -24 -58 -3 0 -22 -15
-42 -32 -57 -51 -59 -53 -123 -72 -33 -11 -62 -22 -65 -26 -29 -39 -510 -38
-510 1 0 4 -16 11 -36 15 -24 4 -52 22 -83 53 -40 39 -51 60 -74 131 -16 53
-31 133 -39 211 -11 116 -10 130 7 175 19 53 47 82 110 116 63 33 111 37 410
34 237 -3 286 -6 320 -21z m1492 16 c87 -13 167 -65 193 -127 24 -55 25 -105
5 -261 -17 -131 -37 -204 -63 -232 -9 -9 -26 -29 -37 -42 -11 -14 -40 -34 -65
-44 -25 -11 -47 -23 -50 -26 -27 -37 -492 -37 -520 -1 -3 4 -32 16 -65 27 -63
21 -74 28 -130 84 -58 59 -83 123 -100 256 -9 66 -13 138 -9 160 9 57 41 114
68 125 13 5 27 13 30 19 4 6 26 16 49 22 23 7 48 17 55 22 29 23 514 36 639
18z m805 -119 c26 -56 38 -111 38 -172 -1 -85 -26 -239 -50 -300 -12 -30 -24
-64 -28 -75 -3 -11 -11 -26 -18 -32 -7 -7 -15 -32 -19 -55 -4 -24 -11 -47 -15
-53 -4 -5 -15 -39 -24 -74 -8 -36 -20 -67 -24 -70 -5 -3 -15 -23 -21 -44 -13
-38 -66 -97 -88 -97 -9 0 -10 15 -6 53 3 28 9 54 12 57 4 3 15 49 26 103 10
53 22 97 26 97 4 0 15 26 24 58 9 31 21 65 26 74 5 10 9 40 9 68 0 44 3 52 25
62 33 15 39 40 24 113 -16 86 -15 139 5 230 24 106 48 123 78 57z m-3702 10
c0 -11 7 -33 16 -51 25 -50 36 -157 29 -278 -7 -105 -6 -112 13 -122 12 -6 30
-11 41 -11 18 0 21 -6 21 -37 0 -49 27 -175 39 -182 4 -3 14 -40 22 -81 7 -41
16 -78 21 -81 8 -5 28 -105 28 -142 0 -29 -75 30 -96 76 -9 20 -21 37 -25 37
-9 0 -26 52 -35 108 -4 23 -10 42 -14 42 -5 0 -11 18 -15 39 -4 22 -15 57 -26
77 -10 21 -22 53 -25 71 -3 18 -12 37 -18 41 -25 15 -38 92 -43 249 -5 140 -3
168 13 212 12 36 23 51 36 51 11 0 18 -7 18 -18z m401 -52 c30 -16 61 -35 68
-43 6 -8 14 -55 17 -104 3 -48 10 -108 15 -133 16 -70 40 -162 51 -192 12 -32
105 -128 124 -128 8 0 14 -4 14 -9 0 -6 26 -18 58 -28 31 -9 60 -22 64 -28 11
-16 420 -14 426 3 2 6 15 12 29 12 32 0 133 29 133 38 0 4 18 13 40 20 22 7
50 21 63 33 60 56 97 94 97 101 0 5 5 8 11 8 7 0 8 -20 4 -63 -8 -70 4 -91 47
-85 22 3 23 7 37 183 8 99 18 182 22 185 5 3 10 57 11 120 l3 115 95 0 95 0 6
-203 c4 -122 11 -208 18 -215 6 -8 14 -59 17 -115 8 -115 18 -134 60 -111 23
12 25 18 20 59 -17 151 -18 170 -7 170 6 0 11 -5 11 -11 0 -16 63 -109 75
-109 5 0 25 -13 43 -29 18 -17 46 -33 63 -36 16 -4 29 -10 29 -15 0 -5 35 -16
78 -26 42 -10 80 -23 84 -29 11 -16 420 -14 426 3 2 6 11 12 20 12 24 0 102
31 102 41 0 5 7 9 16 9 21 0 109 90 127 132 26 56 46 157 58 278 6 63 14 124
19 135 8 21 142 95 172 95 14 0 16 -27 21 -212 5 -202 16 -288 37 -288 6 0 10
-16 10 -35 0 -19 -4 -35 -8 -35 -5 0 -17 -54 -27 -120 -9 -66 -21 -122 -25
-125 -5 -3 -11 -29 -15 -58 -4 -28 -10 -65 -15 -82 -21 -74 -30 -116 -41 -203
-7 -51 -16 -95 -20 -98 -5 -3 -9 -16 -9 -29 0 -29 -35 -161 -57 -213 -25 -61
-86 -150 -110 -161 -13 -6 -23 -17 -23 -26 0 -8 -4 -15 -9 -15 -5 0 -33 -22
-62 -50 -29 -27 -61 -53 -71 -56 -10 -3 -18 -9 -18 -13 0 -4 -34 -34 -75 -66
-41 -33 -75 -63 -75 -67 0 -4 -6 -8 -14 -8 -7 0 -31 -18 -52 -40 -22 -22 -44
-40 -49 -40 -6 0 -23 -14 -38 -30 -16 -17 -34 -30 -41 -30 -7 0 -22 -10 -34
-22 -38 -41 -56 -55 -89 -69 -18 -8 -33 -17 -33 -22 0 -4 -16 -15 -35 -24 -19
-9 -35 -20 -35 -25 0 -4 -6 -8 -12 -8 -7 0 -26 -11 -42 -25 -15 -13 -43 -29
-62 -35 -19 -7 -34 -15 -34 -20 0 -5 -22 -16 -50 -25 -27 -9 -50 -20 -50 -25
0 -4 -38 -13 -85 -20 -47 -7 -85 -16 -85 -21 0 -5 -36 -9 -80 -9 -44 0 -80 4
-80 8 0 5 -45 15 -100 22 -55 7 -100 16 -100 20 0 5 -22 16 -50 25 -27 9 -50
20 -50 25 0 5 -15 14 -34 20 -19 6 -46 22 -61 35 -14 14 -33 25 -41 25 -7 0
-14 4 -14 8 0 5 -16 16 -35 25 -19 9 -35 21 -35 25 0 5 -18 17 -40 27 -22 10
-40 21 -40 26 0 4 -25 23 -55 44 -30 20 -55 39 -55 43 0 4 -13 13 -29 20 -15
7 -49 33 -74 57 -25 25 -49 45 -54 45 -4 0 -29 19 -54 42 -25 24 -63 57 -83
73 -104 85 -210 188 -236 230 -12 19 -25 35 -28 35 -9 0 -35 57 -63 135 -20
57 -55 214 -79 355 -6 36 -15 74 -20 85 -5 11 -16 56 -24 100 -9 44 -22 107
-31 140 -8 33 -18 98 -21 145 -5 73 -3 94 17 150 21 60 23 81 23 263 0 225
-10 210 97 157z m987 -2379 c17 -7 32 -16 32 -20 0 -4 17 -13 38 -20 20 -7 51
-19 67 -26 17 -7 57 -18 90 -25 33 -7 85 -19 116 -26 72 -18 162 -18 225 0 27
7 76 19 109 27 66 14 179 61 189 78 4 6 16 11 26 11 10 0 26 7 35 16 9 9 17
15 18 13 2 -2 9 -16 17 -31 11 -24 20 -28 56 -28 24 0 45 -4 48 -9 10 -15 -5
-41 -24 -41 -9 0 -29 -9 -44 -21 -14 -11 -52 -34 -84 -51 -31 -17 -66 -38 -77
-48 -11 -9 -27 -21 -37 -26 -17 -9 -104 -91 -149 -141 -38 -41 -119 -163 -119
-178 0 -8 -6 -20 -14 -27 -7 -8 -19 -30 -27 -51 -7 -20 -16 -37 -19 -37 -3 0
-14 23 -24 50 -10 28 -21 50 -25 50 -6 0 -41 73 -41 85 0 3 -8 13 -17 24 -10
10 -27 31 -38 46 -73 102 -221 218 -393 310 -20 11 -48 30 -62 43 l-25 22 31
0 c25 0 33 6 48 37 15 32 20 35 29 22 7 -8 27 -21 45 -28z"/>
<path d="M2185 3280 c-27 -11 -58 -20 -67 -20 -10 0 -23 -9 -30 -20 -7 -11
-18 -20 -25 -20 -10 0 -21 -12 -81 -89 -12 -16 -25 -43 -28 -60 -6 -26 -3 -32
19 -40 14 -5 37 -26 52 -45 15 -20 33 -36 40 -36 7 0 18 -7 26 -16 18 -22 84
-50 147 -63 100 -20 315 -8 347 20 5 5 16 9 25 9 20 0 77 27 85 40 3 5 32 17
64 26 78 21 88 40 61 114 -33 91 -110 150 -261 199 -92 29 -299 30 -374 1z
m69 -66 c13 -5 14 -8 1 -28 -8 -12 -18 -43 -21 -68 -7 -50 12 -148 30 -160 17
-11 -19 -10 -69 3 -78 20 -173 131 -133 156 8 4 22 19 31 33 11 16 41 33 80
47 34 12 63 22 64 22 1 1 8 -2 17 -5z m224 -36 c30 -30 0 -75 -43 -64 -21 5
-25 12 -25 41 0 32 3 35 28 35 15 0 33 -5 40 -12z m160 -7 c74 -38 143 -131
97 -131 -13 0 -56 -21 -108 -54 -12 -8 -32 -17 -44 -21 -19 -5 -23 -3 -23 17
0 13 7 33 15 44 19 25 19 74 0 110 -8 16 -15 35 -15 42 0 18 35 15 78 -7z"/>
<path d="M3645 3291 c-11 -5 -51 -19 -90 -31 -38 -11 -74 -26 -80 -31 -5 -6
-24 -19 -42 -29 -68 -40 -133 -169 -103 -205 6 -7 32 -18 58 -25 26 -7 68 -26
95 -41 26 -16 53 -29 60 -29 7 0 17 -4 22 -8 17 -15 140 -32 231 -32 154 1
248 35 337 122 27 26 53 48 58 48 5 0 9 12 9 27 0 31 -50 133 -65 133 -5 0
-23 14 -40 30 -51 49 -146 74 -300 77 -71 1 -139 -2 -150 -6z m318 -88 c29 -9
62 -22 74 -28 29 -15 73 -69 73 -90 0 -26 -96 -113 -138 -125 -58 -16 -83 -13
-75 8 4 9 12 22 19 27 29 25 23 157 -10 190 -9 9 -14 21 -11 26 8 12 8 12 68
-8z m-363 -18 c0 -3 -7 -22 -15 -42 -20 -48 -19 -81 5 -131 11 -22 20 -44 20
-47 0 -15 -42 -1 -100 35 -36 22 -73 40 -82 40 -73 0 80 148 155 150 9 0 17
-2 17 -5z m234 -11 c19 -49 -7 -77 -50 -54 -26 14 -33 55 -11 63 25 11 55 6
61 -9z"/>
<path d="M2782 2343 c-7 -3 -24 -22 -38 -44 -19 -31 -24 -52 -24 -103 0 -99
48 -166 120 -166 35 0 64 -13 96 -41 31 -28 162 -37 235 -16 30 9 64 25 76 37
14 12 36 20 58 20 85 0 143 75 132 172 -12 107 -52 164 -102 144 -20 -7 -19
-50 2 -71 11 -12 16 -35 17 -81 1 -74 -7 -84 -67 -84 -26 0 -50 -9 -75 -28
-20 -16 -56 -35 -80 -42 -38 -12 -52 -12 -110 4 -39 10 -73 26 -83 38 -10 13
-33 22 -70 26 -51 7 -55 9 -66 42 -14 40 -10 84 13 129 11 23 12 35 4 51 -11
21 -16 22 -38 13z"/>
<path d="M2507 1717 c-3 -7 -23 -19 -46 -27 -47 -15 -58 -38 -40 -83 23 -57
52 -74 64 -37 7 22 20 26 30 10 3 -5 20 -10 37 -10 17 0 58 -4 92 -10 90 -14
218 -30 326 -41 104 -10 359 8 684 49 29 3 41 0 48 -12 12 -21 48 -4 48 24 0
10 7 25 15 34 8 8 15 17 15 21 0 11 -52 54 -81 67 -16 7 -29 16 -29 20 0 5 -6
8 -14 8 -21 0 -27 -26 -11 -47 21 -27 19 -31 -27 -38 -24 -4 -46 -12 -49 -17
-6 -9 -370 -33 -509 -33 -111 1 -410 26 -410 35 0 4 -21 11 -47 15 -61 9 -65
12 -53 35 5 10 7 26 4 34 -7 19 -40 21 -47 3z"/>
<path d="M2740 1430 c-13 -9 -12 -13 8 -30 33 -27 77 -38 218 -51 178 -18 396
7 447 50 33 27 3 34 -85 20 -143 -24 -478 -15 -558 15 -8 3 -22 1 -30 -4z"/>
</g>
</svg>
